<svg width="22" height="22" viewBox="0 0 22 22" fill="none" xmlns="http://www.w3.org/2000/svg">
<path d="M20.7817 0H0.865905C0.386951 0 0 0.386951 0 0.865905V20.7817C0 21.2607 0.386951 21.6476 0.865905 21.6476H20.7817C21.2607 21.6476 21.6476 21.2607 21.6476 20.7817V0.865905C21.6476 0.386951 21.2607 0 20.7817 0ZM18.2814 6.3184H16.5523C15.1966 6.3184 14.9342 6.96242 14.9342 7.9095V9.99579H18.1705L17.7483 13.2619H14.9342V21.6476H11.5598V13.2646H8.73752V9.99579H11.5598V7.58749C11.5598 4.79224 13.2673 3.26879 15.7622 3.26879C16.9582 3.26879 17.9838 3.35809 18.2841 3.39868V6.3184H18.2814Z" fill="currentColor"/>
</svg>
