<svg width="192" height="20" viewBox="0 0 192 20" fill="none" xmlns="http://www.w3.org/2000/svg">
<path d="M2.18942 12.3582V9.58731H7.03849C7.7035 9.58731 8.28539 9.458 8.78415 9.19938C9.30139 8.92229 9.70779 8.5436 10.0033 8.06331C10.2989 7.56455 10.4467 6.98267 10.4467 6.31765C10.4467 5.65264 10.2989 5.07998 10.0033 4.59969C9.70779 4.10093 9.30139 3.72224 8.78415 3.46363C8.28539 3.18654 7.7035 3.04799 7.03849 3.04799H2.18942V0.277096H7.20474C8.42394 0.277096 9.51382 0.526477 10.4744 1.02524C11.4535 1.524 12.2201 2.22596 12.7742 3.13112C13.3469 4.03628 13.6332 5.09846 13.6332 6.31765C13.6332 7.53684 13.3469 8.59902 12.7742 9.50418C12.2201 10.4093 11.4535 11.1113 10.4744 11.6101C9.51382 12.1088 8.42394 12.3582 7.20474 12.3582H2.18942ZM0.000412462 19.6734V0.277096H3.18694V19.6734H0.000412462ZM16.5338 19.6734V0.277096H19.7203V19.6734H16.5338ZM28.8643 19.6734V0.277096H32.0508V19.6734H28.8643ZM18.7228 11.0836V8.17415H29.557V11.0836H18.7228ZM45.1825 19.9505C43.797 19.9505 42.5039 19.6918 41.3032 19.1746C40.1025 18.6574 39.0496 17.9462 38.1444 17.041C37.2392 16.1174 36.528 15.0552 36.0108 13.8545C35.512 12.6353 35.2627 11.333 35.2627 9.94752C35.2627 8.56208 35.512 7.26899 36.0108 6.06827C36.528 4.86755 37.23 3.81461 38.1167 2.90945C39.0218 1.98582 40.0655 1.27462 41.2478 0.775857C42.4485 0.258624 43.7416 6.64868e-06 45.1271 6.64868e-06C46.5125 6.64868e-06 47.7964 0.258624 48.9786 0.775857C50.1793 1.27462 51.2323 1.98582 52.1374 2.90945C53.0426 3.81461 53.7445 4.87678 54.2433 6.09598C54.7605 7.2967 55.0192 8.58979 55.0192 9.97523C55.0192 11.3607 54.7605 12.663 54.2433 13.8822C53.7445 15.0829 53.0426 16.1359 52.1374 17.041C51.2507 17.9462 50.207 18.6574 49.0063 19.1746C47.8241 19.6918 46.5494 19.9505 45.1825 19.9505ZM45.1271 16.9025C46.4386 16.9025 47.5839 16.6069 48.563 16.0158C49.5605 15.4247 50.3363 14.6119 50.8905 13.5774C51.4632 12.5245 51.7495 11.3145 51.7495 9.94752C51.7495 8.93153 51.5832 8.0079 51.2507 7.17663C50.9367 6.32689 50.4841 5.59722 49.893 4.98762C49.3019 4.35955 48.5999 3.87926 47.7871 3.54675C46.9928 3.21425 46.1061 3.04799 45.1271 3.04799C43.834 3.04799 42.6887 3.34356 41.6911 3.93468C40.7121 4.50733 39.9362 5.31089 39.3636 6.34536C38.8094 7.37983 38.5323 8.58055 38.5323 9.94752C38.5323 10.9635 38.6893 11.9056 39.0034 12.7738C39.3359 13.6236 39.7885 14.3532 40.3611 14.9628C40.9522 15.5724 41.6542 16.0527 42.467 16.4037C43.2798 16.7362 44.1665 16.9025 45.1271 16.9025ZM61.8375 19.6734V0.831276H65.024V19.6734H61.8375ZM55.5199 3.18654V0.277096H71.3417V3.18654H55.5199ZM81.7399 19.9505C80.3545 19.9505 79.0614 19.6918 77.8606 19.1746C76.6599 18.6574 75.607 17.9462 74.7018 17.041C73.7967 16.1174 73.0855 15.0552 72.5682 13.8545C72.0695 12.6353 71.8201 11.333 71.8201 9.94752C71.8201 8.56208 72.0695 7.26899 72.5682 6.06827C73.0855 4.86755 73.7874 3.81461 74.6741 2.90945C75.5793 1.98582 76.623 1.27462 77.8052 0.775857C79.0059 0.258624 80.299 6.64868e-06 81.6845 6.64868e-06C83.0699 6.64868e-06 84.3538 0.258624 85.536 0.775857C86.7367 1.27462 87.7897 1.98582 88.6948 2.90945C89.6 3.81461 90.302 4.87678 90.8007 6.09598C91.318 7.2967 91.5766 8.58979 91.5766 9.97523C91.5766 11.3607 91.318 12.663 90.8007 13.8822C90.302 15.0829 89.6 16.1359 88.6948 17.041C87.8082 17.9462 86.7645 18.6574 85.5637 19.1746C84.3815 19.6918 83.1069 19.9505 81.7399 19.9505ZM81.6845 16.9025C82.996 16.9025 84.1413 16.6069 85.1204 16.0158C86.1179 15.4247 86.8938 14.6119 87.4479 13.5774C88.0206 12.5245 88.3069 11.3145 88.3069 9.94752C88.3069 8.93153 88.1407 8.0079 87.8082 7.17663C87.4941 6.32689 87.0415 5.59722 86.4504 4.98762C85.8593 4.35955 85.1573 3.87926 84.3445 3.54675C83.5502 3.21425 82.6635 3.04799 81.6845 3.04799C80.3914 3.04799 79.2461 3.34356 78.2486 3.93468C77.2695 4.50733 76.4937 5.31089 75.921 6.34536C75.3668 7.37983 75.0897 8.58055 75.0897 9.94752C75.0897 10.9635 75.2468 11.9056 75.5608 12.7738C75.8933 13.6236 76.3459 14.3532 76.9185 14.9628C77.5097 15.5724 78.2116 16.0527 79.0244 16.4037C79.8372 16.7362 80.7239 16.9025 81.6845 16.9025ZM103.845 19.9505C102.441 19.9505 101.139 19.7011 99.938 19.2023C98.7557 18.6851 97.7213 17.9739 96.8346 17.0687C95.9479 16.1451 95.2644 15.0829 94.7841 13.8822C94.3038 12.663 94.0637 11.3607 94.0637 9.97523C94.0637 8.58979 94.3038 7.2967 94.7841 6.09598C95.2644 4.87678 95.9479 3.81461 96.8346 2.90945C97.7213 2.00429 98.7557 1.29309 99.938 0.775857C101.139 0.258624 102.441 6.64868e-06 103.845 6.64868e-06C105.415 6.64868e-06 106.773 0.258624 107.918 0.775857C109.063 1.29309 110.079 1.99505 110.966 2.88174L108.805 5.04304C108.232 4.41497 107.53 3.92544 106.699 3.57446C105.886 3.22348 104.935 3.04799 103.845 3.04799C102.884 3.04799 102.007 3.21425 101.213 3.54675C100.418 3.87926 99.7255 4.35955 99.1344 4.98762C98.5618 5.59722 98.1184 6.32689 97.8044 7.17663C97.4904 8.02637 97.3333 8.95924 97.3333 9.97523C97.3333 10.9912 97.4904 11.9241 97.8044 12.7738C98.1184 13.6236 98.5618 14.3625 99.1344 14.9906C99.7255 15.6002 100.418 16.0712 101.213 16.4037C102.007 16.7362 102.884 16.9025 103.845 16.9025C105.027 16.9025 106.025 16.727 106.838 16.376C107.669 16.0066 108.371 15.5078 108.943 14.8797L111.105 17.041C110.218 17.9462 109.174 18.6574 107.974 19.1746C106.773 19.6918 105.397 19.9505 103.845 19.9505ZM113.948 19.6734V0.277096H117.135V19.6734H113.948ZM126.279 19.6734V0.277096H129.465V19.6734H126.279ZM116.137 11.0836V8.17415H126.971V11.0836H116.137ZM135.864 11.4438V8.81146H140.768C141.747 8.81146 142.504 8.56208 143.04 8.06331C143.594 7.54608 143.871 6.83488 143.871 5.92972C143.871 5.11693 143.604 4.43344 143.068 3.87926C142.532 3.32508 141.775 3.04799 140.796 3.04799H135.864V0.277096H140.934C142.153 0.277096 143.225 0.526477 144.148 1.02524C145.072 1.50553 145.783 2.17054 146.282 3.02028C146.799 3.85155 147.058 4.80289 147.058 5.87431C147.058 7.00114 146.799 7.98019 146.282 8.81146C145.783 9.64273 145.072 10.2893 144.148 10.7511C143.225 11.2129 142.153 11.4438 140.934 11.4438H135.864ZM133.674 19.6734V0.277096H136.861V19.6734H133.674ZM144.315 19.6734L137.526 11.2498L140.491 10.1692L148.333 19.6734H144.315ZM159.374 19.9505C157.988 19.9505 156.695 19.6918 155.494 19.1746C154.294 18.6574 153.241 17.9462 152.336 17.041C151.43 16.1174 150.719 15.0552 150.202 13.8545C149.703 12.6353 149.454 11.333 149.454 9.94752C149.454 8.56208 149.703 7.26899 150.202 6.06827C150.719 4.86755 151.421 3.81461 152.308 2.90945C153.213 1.98582 154.257 1.27462 155.439 0.775857C156.64 0.258624 157.933 6.64868e-06 159.318 6.64868e-06C160.704 6.64868e-06 161.988 0.258624 163.17 0.775857C164.371 1.27462 165.423 1.98582 166.329 2.90945C167.234 3.81461 167.936 4.87678 168.435 6.09598C168.952 7.2967 169.21 8.58979 169.21 9.97523C169.21 11.3607 168.952 12.663 168.435 13.8822C167.936 15.0829 167.234 16.1359 166.329 17.041C165.442 17.9462 164.398 18.6574 163.198 19.1746C162.015 19.6918 160.741 19.9505 159.374 19.9505ZM159.318 16.9025C160.63 16.9025 161.775 16.6069 162.754 16.0158C163.752 15.4247 164.528 14.6119 165.082 13.5774C165.654 12.5245 165.941 11.3145 165.941 9.94752C165.941 8.93153 165.774 8.0079 165.442 7.17663C165.128 6.32689 164.675 5.59722 164.084 4.98762C163.493 4.35955 162.791 3.87926 161.978 3.54675C161.184 3.21425 160.297 3.04799 159.318 3.04799C158.025 3.04799 156.88 3.34356 155.882 3.93468C154.903 4.50733 154.127 5.31089 153.555 6.34536C153.001 7.37983 152.724 8.58055 152.724 9.94752C152.724 10.9635 152.881 11.9056 153.195 12.7738C153.527 13.6236 153.98 14.3532 154.552 14.9628C155.143 15.5724 155.845 16.0527 156.658 16.4037C157.471 16.7362 158.358 16.9025 159.318 16.9025ZM172.451 19.6734V0.277096H174.668L182.731 13.5497H181.29L189.353 0.277096H191.57V19.6734H188.383V5.87431L189.104 6.06827L183.119 15.905H180.902L174.917 6.06827L175.637 5.87431V19.6734H172.451Z" fill="#212121" fill-opacity="0.8"/>
</svg>
