<svg width="27" height="27" viewBox="0 0 27 27" fill="none" xmlns="http://www.w3.org/2000/svg">
<path d="M22.875 5.16679L21.6237 21.8513C21.5141 23.3127 21.4593 24.0433 21.1042 24.5973C20.7916 25.0851 20.32 25.4772 19.7517 25.7221C19.1062 26.0001 18.2824 26.0001 16.6347 26.0001H10.3653C8.71761 26.0001 7.89378 26.0001 7.24827 25.7221C6.67996 25.4772 6.20843 25.0851 5.89582 24.5973C5.54074 24.0433 5.48594 23.3127 5.37634 21.8513L4.125 5.16679M1 5.16679H26M19.75 5.16679L19.3271 4.03911C18.9173 2.9463 18.7124 2.3999 18.3324 1.99593C17.9968 1.6392 17.5658 1.36307 17.0789 1.19287C16.5276 1.00012 15.8796 1.00012 14.5837 1.00012H12.4163C11.1204 1.00012 10.4724 1.00012 9.9211 1.19287C9.43424 1.36307 9.00325 1.6392 8.66764 1.99593C8.28758 2.3999 8.08268 2.9463 7.67288 4.03911L7.25 5.16679M16.625 10.7223V20.4446M10.375 10.7223V20.4446" stroke="#2D2D2D" stroke-width="2" stroke-linecap="round" stroke-linejoin="round"/>
</svg>
