<svg width="29" height="26" viewBox="0 0 29 26" fill="none" xmlns="http://www.w3.org/2000/svg">
<path d="M26.2335 9.81383L24.042 20.5331C23.7716 21.8555 23.6364 22.5168 23.2835 23.0113C22.9723 23.4475 22.5439 23.791 22.0457 24.004C21.4807 24.2456 20.7914 24.2456 19.4129 24.2456H9.45015C8.07157 24.2456 7.38228 24.2456 6.8173 24.004C6.31909 23.791 5.89072 23.4475 5.57951 23.0113C5.22658 22.5168 5.0914 21.8555 4.82104 20.5331L2.62954 9.81383M26.2335 9.81383H23.283M26.2335 9.81383H27.7087M2.62954 9.81383H1.1543M2.62954 9.81383H5.58003M5.58003 9.81383H23.283M5.58003 9.81383L10.0058 1.15479M23.283 9.81383L18.8572 1.15479" stroke="#212121" stroke-width="2.30908" stroke-linecap="round" stroke-linejoin="round"/>
</svg>
