<svg width="25" height="25" viewBox="0 0 25 25" fill="none" xmlns="http://www.w3.org/2000/svg">
<path d="M12.3586 6.01896C8.84861 6.01896 6.01587 8.85171 6.01587 12.3617C6.01587 15.8717 8.84861 18.7045 12.3586 18.7045C15.8686 18.7045 18.7014 15.8717 18.7014 12.3617C18.7014 8.85171 15.8686 6.01896 12.3586 6.01896ZM12.3586 16.484C10.0887 16.484 8.2363 14.6316 8.2363 12.3617C8.2363 10.0918 10.0887 8.23939 12.3586 8.23939C14.6285 8.23939 16.481 10.0918 16.481 12.3617C16.481 14.6316 14.6285 16.484 12.3586 16.484ZM18.9612 4.28096C18.1416 4.28096 17.4798 4.94276 17.4798 5.76228C17.4798 6.5818 18.1416 7.2436 18.9612 7.2436C19.7807 7.2436 20.4425 6.58489 20.4425 5.76228C20.4427 5.56768 20.4046 5.37495 20.3302 5.19512C20.2558 5.01529 20.1467 4.85189 20.0091 4.71429C19.8715 4.57669 19.7081 4.46758 19.5283 4.39323C19.3485 4.31887 19.1557 4.28072 18.9612 4.28096ZM24.7225 12.3617C24.7225 10.6546 24.738 8.96304 24.6421 7.25906C24.5462 5.27985 24.0947 3.5233 22.6474 2.076C21.197 0.625608 19.4436 0.177193 17.4644 0.0813253C15.7573 -0.0145428 14.0657 0.000919851 12.3617 0.000919851C10.6546 0.000919851 8.96304 -0.0145428 7.25906 0.0813253C5.27985 0.177193 3.5233 0.628701 2.076 2.076C0.625609 3.52639 0.177193 5.27985 0.0813253 7.25906C-0.0145428 8.96613 0.000919852 10.6577 0.000919852 12.3617C0.000919852 14.0657 -0.0145428 15.7604 0.0813253 17.4644C0.177193 19.4436 0.628701 21.2001 2.076 22.6474C3.52639 24.0978 5.27985 24.5462 7.25906 24.6421C8.96613 24.738 10.6577 24.7225 12.3617 24.7225C14.0688 24.7225 15.7604 24.738 17.4644 24.6421C19.4436 24.5462 21.2001 24.0947 22.6474 22.6474C24.0978 21.197 24.5462 19.4436 24.6421 17.4644C24.7411 15.7604 24.7225 14.0688 24.7225 12.3617ZM22.0011 19.6539C21.7753 20.2167 21.5032 20.6373 21.0672 21.0702C20.6311 21.5063 20.2136 21.7784 19.6508 22.0042C18.0241 22.6505 14.1616 22.5052 12.3586 22.5052C10.5557 22.5052 6.69004 22.6505 5.06337 22.0073C4.50053 21.7815 4.07995 21.5094 3.647 21.0733C3.21095 20.6373 2.93881 20.2198 2.71306 19.657C2.06981 18.0272 2.21516 14.1647 2.21516 12.3617C2.21516 10.5588 2.06981 6.69313 2.71306 5.06646C2.93881 4.50363 3.21095 4.08304 3.647 3.65009C4.08304 3.21714 4.50053 2.9419 5.06337 2.71615C6.69004 2.07291 10.5557 2.21826 12.3586 2.21826C14.1616 2.21826 18.0272 2.07291 19.6539 2.71615C20.2167 2.9419 20.6373 3.21405 21.0702 3.65009C21.5063 4.08614 21.7784 4.50363 22.0042 5.06646C22.6474 6.69313 22.5021 10.5588 22.5021 12.3617C22.5021 14.1647 22.6474 18.0272 22.0011 19.6539Z" fill="#414141"/>
</svg>
